<svg width="31" height="25" viewBox="0 0 31 25" fill="none" xmlns="http://www.w3.org/2000/svg">
<path fill-rule="evenodd" clip-rule="evenodd" d="M10 2.49997H30H10Z" fill="#F8F9FC"/>
<path d="M10 2.49997H30" stroke="#FBFCFF" stroke-width="2" stroke-linecap="round" stroke-linejoin="round"/>
<path fill-rule="evenodd" clip-rule="evenodd" d="M10 12.495H22.5H10Z" fill="#F8F9FC"/>
<path d="M10 12.495H22.5" stroke="#FBFCFF" stroke-width="2" stroke-linecap="round" stroke-linejoin="round"/>
<path fill-rule="evenodd" clip-rule="evenodd" d="M10 22.5H30H10Z" fill="#F8F9FC"/>
<path d="M10 22.5H30" stroke="#FBFCFF" stroke-width="2" stroke-linecap="round" stroke-linejoin="round"/>
<path fill-rule="evenodd" clip-rule="evenodd" d="M2.4971 5C3.7471 5 4.9971 3.75 4.9971 2.5C4.9971 1.25 3.7471 0 2.4971 0C1.2471 0 0 1.25 0 2.5C0 3.75 1.2471 5 2.4971 5ZM2.4971 15C3.7471 15 4.9971 13.75 4.9971 12.5C4.9971 11.25 3.7471 10 2.4971 10C1.2471 10 0 11.25 0 12.5C0 13.75 1.2471 15 2.4971 15ZM2.4971 25C3.7471 25 4.9971 23.75 4.9971 22.5C4.9971 21.25 3.7471 20 2.4971 20C1.2471 20 0 21.25 0 22.5C0 23.75 1.2471 25 2.4971 25Z" fill="#F8F9FC"/>
</svg>
